<?xml version="1.0" encoding="UTF-8"?>
<svg xmlns="http://www.w3.org/2000/svg" xmlns:xlink="http://www.w3.org/1999/xlink" width="841.8898pt" height="595.2756pt" viewBox="0 0 841.8898 595.2756" version="1.1">
<g id="surface1">
<path style=" stroke:none;fill-rule:evenodd;fill:rgb(14.117432%,30.587769%,63.529968%);fill-opacity:1;" d="M 79.398438 188.402344 L 762.488281 188.402344 L 762.488281 406.871094 L 79.398438 406.871094 Z M 668.460938 208.324219 C 674.929688 221.304688 676.417969 230.671875 678.5 243.355469 C 680.148438 253.40625 681.59375 263.074219 683.632813 272.945313 C 685.175781 280.414063 686.527344 287.910156 689.109375 295.085938 C 691.039063 300.441406 691.4375 304.566406 689.960938 309.375 C 685.832031 322.832031 676.113281 338.503906 668.527344 351.503906 C 664.75 357.980469 663.109375 365.617188 662.535156 373.171875 C 661.996094 380.222656 662.5 387.585938 662.695313 394.664063 C 677.472656 381.605469 686.890625 353.359375 695.214844 335.039063 C 698.105469 347.546875 703.117188 357.644531 710.617188 364.902344 C 715.011719 369.160156 725.933594 356.265625 726.628906 351.527344 C 726.894531 349.714844 726.648438 347.859375 725.789063 345.949219 C 719.917969 333.203125 712.085938 315.300781 710.59375 301.3125 C 710.125 296.917969 710.183594 292.523438 710.90625 288.125 C 713.035156 275.152344 720.445313 255.347656 725.6875 240.101563 C 728.945313 230.617188 732.382813 222.199219 732.382813 212.226563 C 732.382813 209.289063 733.023438 208.292969 730.21875 209.003906 C 727.625 209.664063 725.3125 211.015625 723.3125 213.148438 C 719.882813 216.792969 716.835938 224.675781 714.933594 231.167969 C 711.089844 244.328125 710.222656 254.902344 703.640625 267.980469 C 702.34375 257.578125 693.347656 207.277344 685.046875 201.578125 C 679.089844 197.488281 670.96875 202.035156 668.460938 208.324219 Z M 363.78125 211.949219 C 370.253906 224.925781 371.742188 234.296875 373.824219 246.976563 C 375.472656 257.03125 376.917969 266.699219 378.957031 276.570313 C 380.5 284.039063 381.851563 291.535156 384.433594 298.710938 C 386.359375 304.066406 386.761719 308.1875 385.285156 313 C 381.152344 326.457031 371.4375 342.125 363.851563 355.128906 C 360.070313 361.605469 358.433594 369.242188 357.859375 376.796875 C 357.320313 383.847656 357.824219 391.207031 358.019531 398.285156 C 372.796875 385.230469 382.214844 356.984375 390.539063 338.660156 C 393.429688 351.167969 398.441406 361.265625 405.941406 368.527344 C 410.335938 372.78125 421.257813 359.890625 421.949219 355.152344 C 422.214844 353.339844 421.96875 351.480469 421.113281 349.570313 C 415.242188 336.824219 407.410156 318.921875 405.917969 304.9375 C 405.449219 300.542969 405.507813 296.144531 406.230469 291.75 C 408.359375 278.773438 415.769531 258.96875 421.011719 243.726563 C 424.269531 234.238281 427.707031 225.824219 427.707031 215.847656 C 427.707031 212.914063 428.347656 211.917969 425.542969 212.628906 C 422.949219 213.285156 420.636719 214.640625 418.636719 216.769531 C 415.207031 220.414063 412.15625 228.300781 410.257813 234.792969 C 406.414063 247.953125 405.546875 258.527344 398.964844 271.605469 C 397.667969 261.203125 388.671875 210.898438 380.371094 205.203125 C 374.414063 201.109375 366.292969 205.65625 363.78125 211.949219 Z M 111.101563 356.558594 L 143.898438 356.558594 L 143.898438 294.507813 L 176.558594 294.507813 L 176.558594 281.578125 L 143.34375 281.578125 L 143.34375 235.578125 L 181.839844 235.578125 L 180.519531 222.375 L 111.101563 222.375 Z M 418.464844 292.347656 L 418.464844 316.945313 L 456.195313 316.945313 L 456.195313 292.207031 Z M 197.332031 222.375 L 227.074219 222.375 L 227.074219 343.703125 L 272.902344 343.703125 L 272.902344 355.34375 C 248.664063 356.816406 222.550781 356.453125 198.0625 356.453125 Z M 657.035156 240.851563 C 667.832031 259.484375 667.921875 289.183594 663.578125 311.761719 C 651.953125 372.261719 585.855469 372.261719 574.230469 311.761719 C 569.890625 289.183594 569.976563 259.484375 580.773438 240.851563 C 598.972656 209.445313 638.839844 209.445313 657.035156 240.851563 Z M 629.097656 235.390625 C 635.710938 247.925781 636.332031 315.429688 631.664063 331.996094 C 626.261719 351.164063 612.558594 351.164063 607.15625 331.996094 C 602.488281 315.429688 603.109375 247.925781 609.722656 235.390625 C 614.734375 225.886719 624.085938 225.886719 629.097656 235.390625 Z M 471.703125 220.804688 L 471.703125 355.472656 C 485.613281 355.472656 499.902344 355.109375 513.765625 355.558594 C 522.046875 355.832031 533.714844 356.488281 539.398438 353.753906 C 569 339.503906 568.648438 295.9375 535.777344 283.96875 C 566.167969 271.53125 562.652344 221.148438 523.34375 221 Z M 502.992188 345.019531 L 502.992188 289.84375 C 507.417969 290.152344 515.320313 289.960938 519.023438 292.097656 C 530.710938 298.835938 532.113281 325.308594 524.964844 337.730469 C 523.363281 340.507813 520.9375 342.289063 518.164063 343.523438 C 514.328125 345.234375 507.355469 344.835938 502.992188 345.019531 Z M 502.234375 231.195313 L 502.234375 279.839844 C 506.585938 279.839844 515.34375 280.808594 518.640625 278.148438 C 520.039063 277.019531 520.972656 275.445313 521.632813 273.660156 C 524.984375 264.558594 527.871094 239.203125 517.976563 233.632813 C 513.199219 230.945313 508.179688 231.328125 502.234375 231.195313 Z M 312.683594 343.703125 L 358.511719 343.703125 L 358.511719 355.34375 C 334.273438 356.816406 308.160156 356.453125 283.671875 356.453125 C 283.671875 311.761719 283.671875 267.066406 283.671875 222.375 C 306.324219 222.375 328.976563 222.375 351.628906 222.375 L 351.628906 234.011719 C 338.992188 234.78125 325.84375 235.050781 312.683594 235.132813 L 312.683594 276.574219 L 346.347656 276.574219 L 346.347656 288.214844 C 335.402344 288.878906 324.074219 289.171875 312.683594 289.289063 Z M 312.683594 343.703125 "/>
<path style=" stroke:none;fill-rule:evenodd;fill:rgb(100%,100%,100%);fill-opacity:1;" d="M 111.101563 356.558594 L 143.898438 356.558594 L 143.898438 294.507813 L 176.558594 294.507813 L 176.558594 281.578125 L 143.34375 281.578125 L 143.34375 235.578125 L 181.839844 235.578125 L 180.519531 222.375 L 111.101563 222.375 Z M 418.464844 292.347656 L 418.464844 316.945313 L 456.195313 316.945313 L 456.195313 292.207031 Z M 197.332031 222.375 L 227.074219 222.375 L 227.074219 343.703125 L 272.902344 343.703125 L 272.902344 355.34375 C 248.664063 356.816406 222.550781 356.453125 198.0625 356.453125 Z M 657.035156 240.851563 C 667.832031 259.484375 667.921875 289.183594 663.578125 311.761719 C 651.953125 372.261719 585.855469 372.261719 574.230469 311.761719 C 569.890625 289.183594 569.976563 259.484375 580.773438 240.851563 C 598.972656 209.445313 638.839844 209.445313 657.035156 240.851563 Z M 629.097656 235.390625 C 635.710938 247.925781 636.332031 315.429688 631.664063 331.996094 C 626.261719 351.164063 612.558594 351.164063 607.15625 331.996094 C 602.488281 315.429688 603.109375 247.925781 609.722656 235.390625 C 614.734375 225.886719 624.085938 225.886719 629.097656 235.390625 Z M 471.703125 220.804688 L 471.703125 355.472656 C 485.613281 355.472656 499.902344 355.109375 513.765625 355.558594 C 522.046875 355.832031 533.714844 356.488281 539.398438 353.753906 C 569 339.503906 568.648438 295.9375 535.777344 283.96875 C 566.167969 271.53125 562.652344 221.148438 523.34375 221 Z M 502.992188 345.019531 L 502.992188 289.84375 C 507.417969 290.152344 515.320313 289.960938 519.023438 292.097656 C 530.710938 298.835938 532.113281 325.308594 524.964844 337.730469 C 523.363281 340.507813 520.9375 342.289063 518.164063 343.523438 C 514.328125 345.234375 507.355469 344.835938 502.992188 345.019531 Z M 502.234375 231.195313 L 502.234375 279.839844 C 506.585938 279.839844 515.34375 280.808594 518.640625 278.148438 C 520.039063 277.019531 520.972656 275.445313 521.632813 273.660156 C 524.984375 264.558594 527.871094 239.203125 517.976563 233.632813 C 513.199219 230.945313 508.179688 231.328125 502.234375 231.195313 Z M 312.683594 343.703125 L 358.511719 343.703125 L 358.511719 355.34375 C 334.273438 356.816406 308.160156 356.453125 283.671875 356.453125 C 283.671875 311.761719 283.671875 267.066406 283.671875 222.375 C 306.324219 222.375 328.976563 222.375 351.628906 222.375 L 351.628906 234.011719 C 338.992188 234.78125 325.84375 235.050781 312.683594 235.132813 L 312.683594 276.574219 L 346.347656 276.574219 L 346.347656 288.214844 C 335.402344 288.878906 324.074219 289.171875 312.683594 289.289063 Z M 312.683594 343.703125 "/>
<path style=" stroke:none;fill-rule:evenodd;fill:rgb(92.941284%,61.569214%,15.686035%);fill-opacity:1;" d="M 668.460938 208.324219 C 674.929688 221.304688 676.417969 230.671875 678.5 243.355469 C 680.148438 253.40625 681.59375 263.074219 683.632813 272.945313 C 685.175781 280.414063 686.527344 287.910156 689.109375 295.085938 C 691.039063 300.441406 691.4375 304.566406 689.960938 309.375 C 685.832031 322.832031 676.113281 338.503906 668.527344 351.503906 C 664.75 357.980469 663.109375 365.617188 662.535156 373.171875 C 661.996094 380.222656 662.5 387.585938 662.695313 394.664063 C 677.472656 381.605469 686.890625 353.359375 695.214844 335.039063 C 698.105469 347.546875 703.117188 357.644531 710.617188 364.902344 C 715.011719 369.160156 725.933594 356.265625 726.628906 351.527344 C 726.894531 349.714844 726.648438 347.859375 725.789063 345.949219 C 719.917969 333.203125 712.085938 315.300781 710.59375 301.3125 C 710.125 296.917969 710.183594 292.523438 710.90625 288.125 C 713.035156 275.152344 720.445313 255.347656 725.6875 240.101563 C 728.945313 230.617188 732.382813 222.199219 732.382813 212.226563 C 732.382813 209.289063 733.023438 208.292969 730.21875 209.003906 C 727.625 209.664063 725.3125 211.015625 723.3125 213.148438 C 719.882813 216.792969 716.835938 224.675781 714.933594 231.167969 C 711.089844 244.328125 710.222656 254.902344 703.640625 267.980469 C 702.34375 257.578125 693.347656 207.277344 685.046875 201.578125 C 679.089844 197.488281 670.96875 202.035156 668.460938 208.324219 Z M 363.78125 211.949219 C 370.253906 224.925781 371.742188 234.296875 373.824219 246.976563 C 375.472656 257.03125 376.917969 266.699219 378.957031 276.570313 C 380.5 284.039063 381.851563 291.535156 384.433594 298.710938 C 386.359375 304.066406 386.761719 308.1875 385.285156 313 C 381.152344 326.457031 371.4375 342.125 363.851563 355.128906 C 360.070313 361.605469 358.433594 369.242188 357.859375 376.796875 C 357.320313 383.847656 357.824219 391.207031 358.019531 398.285156 C 372.796875 385.230469 382.214844 356.984375 390.539063 338.660156 C 393.429688 351.167969 398.441406 361.265625 405.941406 368.527344 C 410.335938 372.78125 421.257813 359.890625 421.949219 355.152344 C 422.214844 353.339844 421.96875 351.480469 421.113281 349.570313 C 415.242188 336.824219 407.410156 318.921875 405.917969 304.9375 C 405.449219 300.542969 405.507813 296.144531 406.230469 291.75 C 408.359375 278.773438 415.769531 258.96875 421.011719 243.726563 C 424.269531 234.238281 427.707031 225.824219 427.707031 215.847656 C 427.707031 212.914063 428.347656 211.917969 425.542969 212.628906 C 422.949219 213.285156 420.636719 214.640625 418.636719 216.769531 C 415.207031 220.414063 412.15625 228.300781 410.257813 234.792969 C 406.414063 247.953125 405.546875 258.527344 398.964844 271.605469 C 397.667969 261.203125 388.671875 210.898438 380.371094 205.203125 C 374.414063 201.109375 366.292969 205.65625 363.78125 211.949219 "/>
</g>
</svg>
